# xmcd CD database file
#
# Track frame offsets:
#	150
#	18816
#	37708
#	53617
#	67650
#	84295
#	103398
#	121715
#	145027
#	160319
#	178085
#	193401
#	209641
#	225447
#	244407
#	259460
#	278424
#	297138
#
# Disc length: 4106 seconds
#
# Revision: 1
# Processed by: cddbd v1.5.2PL0 Copyright (c) Steve Scherf et al.
# Submitted via: CDex 1.51
#
DISCID=f5100812
DTITLE=Various Artist - MRH123
DYEAR=1900
DGENRE=Blues
TTITLE0=Take That - These Days
TTITLE1=Cheryl - I Don't Care
TTITLE2=One Direction - Ready To Run
TTITLE3=Sam Smith - Like I Can
TTITLE4=5 Seconds Of Summer - Good Girls
TTITLE5=Rixton - Wait On Me
TTITLE6=The Veronicas - You Ruin Me
TTITLE7=The Script - No Good In Goodbye
TTITLE8=Olly Murs Ft Travie McCoy - Wrapped Up
TTITLE9=Calvin Harris Ft Ellie Goulding - Outside
TTITLE10=Waze and Odyssey Vs R Kelly - Bump and Grind 2014
TTITLE11=David Guetta Ft Sam Martin - Dangerous
TTITLE12=Parra For Cuva Ft Ana Naklab - Wicked Games
TTITLE13=OneRepublic - I Lived
TTITLE14=George Ezra - Listen To The Man
TTITLE15=Hozier - Take Me To The Church
TTITLE16=Kendrick Lamar - I
TTITLE17=Tom Odell - Real Love
EXTD=
EXTT0=
EXTT1=
EXTT2=
EXTT3=
EXTT4=
EXTT5=
EXTT6=
EXTT7=
EXTT8=
EXTT9=
EXTT10=
EXTT11=
EXTT12=
EXTT13=
EXTT14=
EXTT15=
EXTT16=
EXTT17=
PLAYORDER=
